<svg height="41" viewBox="0 0 211 41" width="211" xmlns="http://www.w3.org/2000/svg" xmlns:xlink="http://www.w3.org/1999/xlink"><linearGradient id="a"><stop offset="0" stop-color="#0072bc"/><stop offset="1" stop-color="#00badd"/></linearGradient><linearGradient id="b" x1="49.99996%" x2="49.99996%" xlink:href="#a" y1="100.000407%" y2="-.000432%"/><linearGradient id="c" x1="50.000328%" x2="50.000328%" xlink:href="#a" y1="99.999922%" y2=".000531%"/><mask id="d" fill="#fff"><path d="m.35769019.32182796h75.48313801v17.81031184h-75.48313801z" fill="#fff" fill-rule="evenodd"/></mask><mask id="e" fill="#fff"><path d="m6.38111169 1.68452688c-4.10321554 4.11807527-5.9801949 17.18429032-5.9801949 17.18429032 2.50528838-7.701828 4.52444309-7.6215914 4.52444309-7.6215914 1.58335638-1.37107526 4.12838322 6.9051936 4.66441073 8.7316774.06623075.2235162.10199535.3504839.10199535.3504839l2.90885444 10.7023226c2.6660083 8.4323333 7.5132159 6.9722043 7.5132159 6.9722043 5.5744212-1.7832796 7.0284068-11.9993334 7.0288484-11.9993334-4.9280091 6.4048172-6.2208333-.9734193-6.2208333-.9734193l-3.7967879-13.5396989c-.8949982-5.25681724-2.3949039-8.08096778-3.882888-9.5732796-1.1091442-1.11317205-2.386073-1.60340861-3.60074491-1.60296775-1.23012574 0-2.39666996.50258065-3.2603189 1.36931183" fill="#fff" fill-rule="evenodd"/></mask><mask id="f" fill="#fff"><path d="m9.70192134.0343871-9.70192134.0154301s6.71005774 27.8015269 9.45951681 33.317129c0 0 5.25563049 9.568871 10.42957649.8914194 0 0 3.7729449-8.3401936 4.5942061-14.5069462-.0918399.3354946-3.9084971 14.1630752-7.3427821 5.910172l-2.0213624-6.9611828z" fill="#fff" fill-rule="evenodd"/></mask><mask id="g" fill="#fff"><path d="m.32815127.19411075h6.85135v9.50481398h-6.85135z" fill="#fff" fill-rule="evenodd"/></mask><mask id="h" fill="#fff"><path d="m.39155618.19411075h6.85090845v9.50481398h-6.85090845z" fill="#fff" fill-rule="evenodd"/></mask><g fill="none" fill-rule="evenodd"><g transform="translate(33.115373 1.287973)"><path d="m96.4635816 14.8488774c0-2.8338494-2.1586808-4.7388064-4.4370185-4.7388064-2.3728269 0-4.3178032 1.7625591-4.3178032 4.7388064v.0476129c0 2.904828 2.016947 4.7626129 4.3178032 4.7626129 2.2783377 0 4.4370185-1.9287634 4.4370185-4.7626129zm.8543766 6.3100323c-.5223398 0-.9254643-.4042688-.9254643-.9293334v-1.6655698c-.9969935 1.4755591-2.443473 2.7381827-4.6979676 2.7381827-2.9419698 0-5.860538-2.3339139-5.860538-6.3814516v-.0480537c0-4.0237312 2.9185682-6.40525809 5.860538-6.40525809 2.2778961 0 3.7486603 1.23837634 4.6979676 2.61959139v-6.61951612c0-.52374194.3792814-.92889248.9011797-.92889248.5227814 0 .9263474.40515054.9263474.92889248v15.76207522c0 .5250646-.403566.9293334-.9020628.9293334zm-13.7362569-10.738914c-2.3723853.2856774-4.3182447 2.072043-4.3182447 5.6196452v4.1899354c0 .5008172-.3788398.9293334-.9011797.9293334-.5227813 0-.9259058-.4042688-.9259058-.9293334v-10.69086017c0-.49993548.4031245-.92801075.9020628-.92801075.5218983 0 .9250227.40426881.9250227.92801075v2.31010757c.9020628-2.0482366 2.6814622-3.28573123 4.223314-3.28573123.5457413 0 .9020628.40426882.9020628.92801076 0 .50037634-.3324784.85747307-.8071321.92889247zm-11.3148608 4.4764946c0-2.6433978-1.9688193-4.8102258-4.5553507-4.8102258-2.6571776 0-4.4842631 2.166828-4.4842631 4.7626129v.0476129c0 2.642957 1.9458593 4.7855377 4.5323907 4.7855377 2.6571776 0 4.5072231-2.1425807 4.5072231-4.7374839zm-4.5553507 6.4281828c-3.6771311 0-6.3585933-2.9039462-6.3585933-6.380129v-.0480538c0-3.4766236 2.7053053-6.42906449 6.4067209-6.42906449 3.6771311 0 6.3824363 2.90526879 6.3824363 6.38145159v.0476129c0 3.4761828-2.7291483 6.4281828-6.4305639 6.4281828zm-7.5635513-15.69021504-5.3147967 14.81025804c-.1655769.4756882-.4980552.8094194-.9727089.8094194h-.1430584c-.4737706 0-.806249-.3337312-.9718258-.8094194l-4.3186863-12.81095696-4.2939601 12.81095696c-.1664599.4756882-.4989383.8094194-.9731504.8094194h-.1421753c-.4742122 0-.8066905-.3094839-.9731505-.8094194l-5.3147967-14.81025804c-.0472446-.14327957-.0949307-.28567741-.0949307-.42939784 0-.49949463.4508106-.95181721.9731505-.95181721.4746536 0 .830092.35665591.9727089.78605376l4.5791938 13.23859143 4.3420878-13.28664519c.1426168-.42895699.4269675-.738.9250227-.738h.1187738c.4746537 0 .783289.30904301.9250228.738l4.3425293 13.28664519 4.6025954-13.28664519c.1426168-.42895699.4508106-.738.9020627-.738.4976137 0 .9488659.45232258.9488659.92801075 0 .14327957-.0719708.30992473-.1187738.4532043z" fill="#0079bf"/><g fill="#ffa726"><path d="m74.487999 8.39397849c-1.8262024.42807527-2.847039 1.83309681-2.847039 4.40507531v3.3813978c0 .999871-.806249 1.8092903-1.8032425 1.8092903-.9956689 0-1.8032425-.8094193-1.8032425-1.8092903v-9.42955913c0-1.00075269.8075736-1.81017204 1.8032425-1.81017204.9969935 0 1.8032425.80941935 1.8032425 1.81017204v.5717957c.5218983-1.2388172 1.3762749-2.38196774 2.4439145-2.38196774 1.1153258 0 1.7559979.73888172 1.7559979 1.76255914 0 .95269892-.6177121 1.5236129-1.3528734 1.69069892zm-15.3240287-.64321505c-1.4950487 0-2.4677576 1.07129032-2.7521083 2.71437636h5.433129c-.213263-1.61927958-1.1625704-2.71437636-2.6810207-2.71437636zm4.436577 4.97687096h-7.1409991c.3554383 1.6426452 1.4941656 2.4996774 3.1075466 2.4996774.9969935 0 1.8270856-.3094838 2.5626884-.8570322.2613907-.1900108.4980552-.2856774.8777781-.2856774.8066905 0 1.400118.6194086 1.400118 1.4288279 0 .476129-.213263.8332258-.4746536 1.0712903-1.1148843.952699-2.5626884 1.5474194-4.4127339 1.5474194-3.8201895 0-6.643827-2.6905699-6.643827-6.5957097v-.0467312c0-3.64326879 2.5860899-6.64332256 6.2875055-6.64332256 4.2471571 0 6.1210457 3.49998925 6.1210457 6.14250536 0 1.0483656-.7356029 1.7387527-1.6844687 1.7387527zm-16.8897235-1.2855484c0-2.11921503-1.400118-3.52423654-3.0845867-3.52423654-1.6844686 0-3.1084297 1.38121506-3.1084297 3.52423654v.0476129c0 2.1187742 1.4239611 3.5237957 3.1084297 3.5237957 1.6844687 0 3.0845867-1.4050215 3.0845867-3.5237957zm1.7559978 6.5476559c-.9965519 0-1.8032424-.8094193-1.8032424-1.8092903v-.167086c-.8777782 1.1907634-2.0880347 2.0716021-3.9623648 2.0716021-2.9658129 0-5.7898919-2.3339139-5.7898919-6.5952688v-.0476129c0-4.2626774 2.7768344-6.59570966 5.7898919-6.59570966 1.9220162 0 3.1084297.88127957 3.9623648 1.90451613v-4.61889247c0-1.00075269.8066905-1.81017204 1.8032424-1.81017204.9961105 0 1.8032425.80941935 1.8032425 1.81017204v14.0484516c0 .999871-.807132 1.8092903-1.8032425 1.8092903zm-15.9170146 0c-.9969935 0-1.8032425-.8094193-1.8032425-1.8092903v-5.4534408c0-1.7136237-.8066905-2.59490327-2.1829654-2.59490327-1.3758334 0-2.2540531.88127957-2.2540531 2.59490327v5.4534408c0 .999871-.807132 1.8092903-1.8028009 1.8092903-.9969935 0-1.8032425-.8094193-1.8032425-1.8092903v-9.42955913c0-1.00075269.806249-1.81017204 1.8032425-1.81017204.9956689 0 1.8028009.80941935 1.8028009 1.81017204v.14283871c.8305336-1.07173118 1.8981732-2.04735484 3.7252588-2.04735484 2.7282652 0 4.3178031 1.80929033 4.3178031 4.7383656v6.59570966c0 .999871-.8066905 1.8092903-1.8028009 1.8092903zm-15.0410026-13.04902147c.9961104 0 1.8032425.80941935 1.8032425 1.81017204v9.42955913c0 .999871-.8071321 1.8092903-1.8032425 1.8092903-.9969935 0-1.8032425-.8094193-1.8032425-1.8092903v-9.42955913c0-1.00075269.806249-1.81017204 1.8032425-1.81017204zm0-1.14182796c-1.1391688 0-2.0165055-.66746236-2.0165055-1.71494623v-.04761291c0-1.04748387.8773367-1.69069892 2.0165055-1.69069892 1.1387273 0 2.016947.64321505 2.016947 1.69069892v.04761291c0 1.04748387-.8782197 1.71494623-2.016947 1.71494623zm-6.0230241.71375269h-7.47436058v3.54804301h6.40627938c.9250228 0 1.6601841.73755914 1.6601841 1.66645161 0 .92889252-.7351613 1.66689252-1.6601841 1.66689252h-6.40627938v4.7626129c0 1.0236774-.80624896 1.8330967-1.826644 1.8330967s-1.82708553-.8094193-1.82708553-1.8330967v-13.14468821c0-1.02323656.80669049-1.83309677 1.82708553-1.83309677h9.30100458c.9245812 0 1.660184.738 1.660184 1.66689247s-.7356028 1.66689247-1.660184 1.66689247z" mask="url(#d)" transform="translate(101.99535 3.526882)"/><path d="m4.39529313 3.95332581s.64685363-3.32540861 4.28512932-3.89367742h19.64801335l-2.1834069 7.0564086h-12.3078805l-1.4557518 5.19201071h10.5293641l-2.1026054 6.8937312h-9.7028044l-2.10083932 6.4083441c-1.10296271 1.7638817-4.12440938 4.7850968-5.98461029 1.621043 0 0-.80801511-.8914193-2.66689141-8.1916236z"/></g></g><path d="m6.38111169 1.68452688c-4.10321554 4.11807527-5.9801949 17.18429032-5.9801949 17.18429032 2.50528838-7.701828 4.52444309-7.6215914 4.52444309-7.6215914 1.58335638-1.37107526 4.12838322 6.9051936 4.66441073 8.7316774.06623075.2235162.10199535.3504839.10199535.3504839l2.90885444 10.7023226c2.6660083 8.4323333 7.5132159 6.9722043 7.5132159 6.9722043 5.5744212-1.7832796 7.0284068-11.9993334 7.0288484-11.9993334-4.9280091 6.4048172-6.2208333-.9734193-6.2208333-.9734193l-3.7967879-13.5396989c-.8949982-5.25681724-2.3949039-8.08096778-3.882888-9.5732796-1.1091442-1.11317205-2.386073-1.60340861-3.60074491-1.60296775-1.23012574 0-2.39666996.50258065-3.2603189 1.36931183" fill="url(#b)" mask="url(#e)" transform="translate(15.012303 .847113)"/><path d="m24.6916172 20.5108011-.1532138.0290967c0 .0017635 0 .0052904-.0017661.006613-.0922816.3359354-3.9076141 14.1710107-7.3418991 5.9141397l-1.8522532-6.4383225.1540968-.6220538c2.5061715-7.7084409 4.5270924-7.6268817 4.5270924-7.6268817 1.585564-1.3732796 4.1310324 6.9104838 4.667943 8.7374086" fill="#00bbdc"/><path d="m9.70192134.0343871-9.70192134.0154301s6.71005774 27.8015269 9.45951681 33.317129c0 0 5.25563049 9.568871 10.42957649.8914194 0 0 3.7729449-8.3401936 4.5942061-14.5069462-.0918399.3354946-3.9084971 14.1630752-7.3427821 5.910172l-2.0213624-6.9611828z" fill="url(#c)" mask="url(#f)" transform="translate(0 .406253)"/><g fill="#0079bf" transform="translate(81.24305 28.180446)"><path d="m6.47922151 6.95690645v-.02733333c0-1.69246237-1.1674273-2.7747742-2.52913146-2.7747742-1.33432878 0-2.59845297 1.12331183-2.59845297 2.76066667v.02821506c0 1.66468817 1.26412419 2.77477419 2.59845297 2.77477419 1.38952107 0 2.52913146-1.02676344 2.52913146-2.76154839zm-6.15592716-6.09092473c0-.30507527.23578146-.54093548.52763829-.54093548.30598605 0 .54220904.23586021.54220904.54093548v3.92674194c.58371365-.86011828 1.43146721-1.59591398 2.75166677-1.59591398 1.72332403 0 3.43251884 1.36005376 3.43251884 3.71865591v.02821506c0 2.34493548-1.69550712 3.73232255-3.43251884 3.73232255-1.33432878 0-2.19577003-.72168815-2.75166677-1.52625804v.90200004c0 .2909677-.22209377.5409354-.52807982.5409354s-.54176751-.2499677-.54176751-.5409354z"/><path d="m.73127575 9.49053011c-.16690148-.0687742-.33380296-.20808602-.33380296-.45761291 0-.2636344.22253531-.4576129.45875831-.4576129.09713842 0 .18058917.02733333.26403991.05510753.20840608.06965591.41681216.12476344.77843204.12476344.66672285 0 1.05615964-.40250538 1.4451549-1.27629032l.05563383-.11065592-3.00201899-6.355c-.0415046-.09698924-.06932152-.19441935-.06932152-.29184946 0-.29096774.236223-.52726882.54176751-.52726882.29185683 0 .44507062.18031183.54220905.41617205l2.50131454 5.63375268 2.22358694-5.64786021c.08345074-.22175269.236223-.40206452.51439214-.40206452.29141528 0 .52807982.23630108.52807982.52726882 0 .08332258-.02781691.18075269-.05563383.26363441l-2.80730059 6.68784946c-.62521825 1.48481721-1.32019955 2.02619355-2.40417611 2.02619355-.472446 0-.81993665-.08332258-1.18111499-.20852688" mask="url(#g)" transform="translate(8.389228 3.086022)"/><path d="m24.7548013 6.7076-3.613108-5.05049462c-.0693215-.11153764-.1249553-.23630108-.1249553-.37517205 0-.2914086.2640399-.54093548.5695844-.54093548.236223 0 .3894368.13887097.5285214.33329032l3.2099835 4.62021506 3.2378004-4.62021506c.1390846-.19441935.2777276-.33329032.5139506-.33329032.3059861 0 .5422091.24952688.5422091.54093548 0 .13887097-.0834508.29140861-.1527723.40250538l-3.5994203 4.9953871v3.35803229c0 .3046344-.2503522.555043-.5558967.555043s-.5558968-.2504086-.5558968-.555043z"/><path d="m36.0120855 6.97110215v-.02733333c0-1.54080645-1.153298-2.80343011-2.668216-2.80343011-1.5564225 0-2.6262699 1.26262366-2.6262699 2.77521505v.02821506c0 1.53992473 1.1391689 2.78888172 2.6540868 2.78888172 1.5564226 0 2.6403991-1.24895699 2.6403991-2.76154839m-6.3925917 0v-.02733333c0-2.02619355 1.5842395-3.74731183 3.7521926-3.74731183 2.1538239 0 3.7380634 1.69334409 3.7380634 3.71909677v.02821506c0 2.02575269-1.5979272 3.74643008-3.7658803 3.74643008-2.1538239 0-3.7243757-1.6929032-3.7243757-3.71909675"/><path d="m45.1985551 10.0515247c0 .2909678-.2225354.5413764-.5280799.5413764-.2918568 0-.5285213-.2363011-.5285213-.5413764v-.77723653c-.4861337.77723653-1.2221781 1.40149463-2.4593684 1.40149463-1.7370118 0-2.7516668-1.16563441-2.7516668-2.87264517v-3.98184946c0-.30463441.2225353-.54093548.5280798-.54093548.2918569 0 .5422091.23630107.5422091.54093548v3.71909678c0 1.33183871.7223567 2.16418279 1.9869224 2.16418279 1.2230611 0 2.1538239-.90155914 2.1538239-2.24794623v-3.63533334c0-.30463441.2225353-.54093548.5285213-.54093548.2918569 0 .5280799.23630107.5280799.54093548z"/><path d="m47.6033052 3.82137634c0-.2914086.236223-.54137634.5276382-.54137634.3064276 0 .5426506.23674194.5426506.54137634v1.3463871c.5276383-1.19384946 1.5696687-1.91509677 2.4734977-1.91509677.3196737 0 .5280798.23541935.5280798.54137634 0 .29096774-.1947184.49905376-.4728876.54049462-1.3890795.16664517-2.5286899 1.20707527-2.5286899 3.27470968v2.44236559c0 .2909677-.2225353.5409355-.5280798.5409355-.305986 0-.542209-.2358602-.542209-.5409355z"/><path d="m56.7893773 9.51036882c2.4598099 0 4.0303617-1.66512904 4.0303617-3.81564516v-.02821506c0-2.15007527-1.5705518-3.84297849-4.0303617-3.84297849h-2.2787792v7.68683871zm-3.3764435-8.14489248c0-.30551612.2499107-.55460215.5417675-.55460215h2.834676c3.0576528 0 5.1699721 2.09496775 5.1699721 4.82830108v.02733333c0 2.7337742-2.1123193 4.856957-5.1699721 4.856957h-2.834676c-.2918568 0-.5417675-.2504086-.5417675-.55504302z"/><path d="m64.1972422 3.82137634c0-.2914086.236223-.54137634.5280798-.54137634.305986 0 .542209.23674194.542209.54137634v6.23023656c0 .3050753-.2225353.5409355-.5276382.5409355-.3064276 0-.5426506-.2358602-.5426506-.5409355zm-.09758-2.71966666c0-.34651613.2786107-.56915054.6256598-.56915054.3616199 0 .6393475.22263441.6393475.56915054v.18031183c0 .33329032-.2777276.56915053-.6393475.56915053-.3470491 0-.6256598-.23586021-.6256598-.56915053z"/><path d="m67.3104405 6.97110215v-.02733333c0-2.02619355 1.5842395-3.74731183 3.6824295-3.74731183 1.1956858 0 2.0014932.45849462 2.6403991 1.04131183.0838923.06921505.1669015.20808602.1669015.37429032 0 .29184946-.236223.51360215-.5139506.51360215-.1390845 0-.2640399-.05554839-.3474906-.12476344-.5143922-.47172043-1.0981058-.86055914-1.9591055-.86055914-1.4592841 0-2.5715191 1.23529032-2.5715191 2.77521505v.02821506c0 1.5535914 1.1396103 2.78888172 2.6408406 2.78888172.8194951 0 1.4729718-.37473119 2.0006101-.87466667.0697631-.06921505.1669015-.13843011.305986-.13843011.26404 0 .4865753.23586022.4865753.4853871 0 .1252043-.0560754.24996774-.1390846.33284946-.6808521.68024728-1.5012303 1.15240858-2.7101622 1.15240858-2.09819 0-3.6824295-1.70745159-3.6824295-3.71909675"/><path d="m76.0657479 8.62216774v-4.32880645h-.5832721c-.2503523 0-.4728876-.22219355-.4728876-.47216129 0-.26319355.2225353-.47127957.4728876-.47127957h.5832721v-1.69290323c0-.2914086.2229768-.54137634.5280798-.54137634.2918568 0 .542209.24996774.542209.54137634v1.69290323h1.8624086c.2635984 0 .4861337.22175269.4861337.47127957 0 .26363441-.2225353.47216129-.4861337.47216129h-1.8624086v4.19037634c0 .87422581.4865753 1.19340861 1.2089319 1.19340861.3757491 0 .570026-.09743011.6534767-.09743011.2499107 0 .4583168.20808602.4583168.45805377 0 .1939785-.1253969.3465161-.3055445.416172-.3059861.1247635-.6393475.1944194-1.0561597.1944194-1.1537396 0-2.02931-.5691505-2.02931-2.02619356"/><path d="m81.4025773 3.82137634c0-.2914086.236223-.54137634.5280798-.54137634.3059861 0 .5422091.23674194.5422091.54137634v6.23023656c0 .3050753-.2225353.5409355-.5276383.5409355-.3064276 0-.5426506-.2358602-.5426506-.5409355zm-.09758-2.71966666c0-.34651613.2786107-.56915054.6256598-.56915054.3616199 0 .6393475.22263441.6393475.56915054v.18031183c0 .33329032-.2777276.56915053-.6393475.56915053-.3470491 0-.6256598-.23586021-.6256598-.56915053z"/><path d="m90.9081465 6.97110215v-.02733333c0-1.54080645-1.153298-2.80343011-2.668216-2.80343011-1.555981 0-2.6262699 1.26262366-2.6262699 2.77521505v.02821506c0 1.53992473 1.1396104 2.78888172 2.6545284 2.78888172 1.555981 0 2.6399575-1.24895699 2.6399575-2.76154839m-6.3925916 0v-.02733333c0-2.02619355 1.5842394-3.74731183 3.7526341-3.74731183 2.1533823 0 3.7376218 1.69334409 3.7376218 3.71909677v.02821506c0 2.02575269-1.5979272 3.74643008-3.7658803 3.74643008-2.1538239 0-3.7243756-1.6929032-3.7243756-3.71909675"/><path d="m93.9381149 3.82137634c0-.2914086.2366645-.54137634.5280798-.54137634.3059861 0 .5422091.23674194.5422091.54137634v.77723656c.4720044-.77723656 1.2226196-1.40193548 2.4593684-1.40193548 1.7374532 0 2.7521078 1.16607527 2.7521078 2.87264516v3.98229032c0 .3050753-.2366641.5409355-.5285209.5409355-.3055445 0-.541326-.2358602-.541326-.5409355v-3.71865591c0-1.33183871-.7232397-2.16506452-1.9873639-2.16506452-1.2371903 0-2.1542654.90244086-2.1542654 2.2483871v3.63533333c0 .3050753-.2225353.5409355-.5280798.5409355-.3055446 0-.5422091-.2358602-.5422091-.5409355z"/><path d="m107.251952 7.8868129v-.69347312c-.527638-.15297849-1.23719-.30551612-2.112319-.30551612-1.348017 0-2.09819.58325806-2.09819 1.4848172v.02777419c0 .90155914.833624 1.42882796 1.806333 1.42882796 1.320641 0 2.404176-.80456989 2.404176-1.94243011m-5.294486.55548387v-.02821505c0-1.51215054 1.250878-2.31716129 3.071341-2.31716129.917075 0 1.57011.1252043 2.209457.30551613v-.2504086c0-1.28995699-.792119-1.95565592-2.140136-1.95565592-.722798 0-1.333887.1662043-1.862408.40206452-.069322.02777419-.138643.04188172-.194277.04188172-.250352 0-.472446-.20852688-.472446-.45805376 0-.22175269.152772-.38839785.291415-.44394624.709111-.30551613 1.431467-.48582796 2.348542-.48582796 1.014655 0 1.793087.26407527 2.321167.79090323.486134.48582796.736486 1.17930107.736486 2.0954086v3.92630105c0 .3055162-.222535.5277097-.51395.5277097-.306428 0-.514393-.2221935-.514393-.4994946v-.65247314c-.500262.65247314-1.334328 1.23484944-2.598894 1.23484944-1.333887 0-2.681904-.76312901-2.681904-2.23339783"/><path d="m110.545828 3.82137634c0-.2914086.236664-.54137634.52808-.54137634.305986 0 .542209.23674194.542209.54137634v1.3463871c.52808-1.19384946 1.57011-1.91509677 2.473497-1.91509677.319674 0 .528522.23541935.528522.54137634 0 .29096774-.194719.49905376-.473329.54049462-1.38908.16664517-2.52869 1.20707527-2.52869 3.27470968v2.44236559c0 .2909677-.222536.5409355-.52808.5409355-.305545 0-.542209-.2358602-.542209-.5409355z"/><path d="m.79423912 9.49053011c-.16690149-.0687742-.33336143-.20808602-.33336143-.45761291 0-.2636344.22253531-.4576129.45831677-.4576129.09713843 0 .18058917.02733333.26403991.05510753.20884762.06965591.41725371.12476344.77843204.12476344.66716439 0 1.05615965-.40250538 1.4451549-1.27629032l.05563383-.11065592-3.00157745-6.355c-.04194614-.09698924-.06932151-.19441935-.06932151-.29184946 0-.29096774.23578145-.52726882.54132597-.52726882.29229836 0 .44462908.18031183.54220904.41617205l2.50131454 5.63375268 2.22358695-5.64786021c.08345074-.22175269.23622299-.40206452.51395059-.40206452.29185683 0 .52852136.23630108.52852136.52726882 0 .08332258-.02781691.18075269-.05519229.26363441l-2.80774213 6.68784946c-.62521825 1.48481721-1.31975801 2.02619355-2.40373457 2.02619355-.47288753 0-.82037818-.08332258-1.18155652-.20852688" mask="url(#h)" transform="translate(115.2415 3.086022)"/></g></g></svg>